<svg width="14" height="14" viewBox="0 0 14 14" fill="none" xmlns="http://www.w3.org/2000/svg">
<path d="M13.2915 12.4955L11.5188 10.7227C11.4892 10.6932 11.4597 10.6932 11.4597 10.6636C12.346 9.6 12.8778 8.21136 12.8778 6.70455C12.8778 3.27727 10.1006 0.5 6.6733 0.5C3.24602 0.5 0.46875 3.27727 0.46875 6.70455C0.46875 10.1318 3.24602 12.9091 6.6733 12.9091C8.18011 12.9091 9.5392 12.3773 10.6324 11.4909C10.6619 11.5205 10.6619 11.55 10.6915 11.55L12.4642 13.3227C12.5824 13.4409 12.7301 13.5 12.8778 13.5C13.0256 13.5 13.1733 13.4409 13.2915 13.3227C13.5278 13.0864 13.5278 12.7318 13.2915 12.4955ZM6.6733 11.7273C3.89602 11.7273 1.65057 9.48182 1.65057 6.70455C1.65057 3.92727 3.89602 1.68182 6.6733 1.68182C9.45057 1.68182 11.696 3.92727 11.696 6.70455C11.696 9.48182 9.45057 11.7273 6.6733 11.7273Z" fill="black"/>
</svg>
