<svg width="15" height="14" viewBox="0 0 15 14" fill="none" xmlns="http://www.w3.org/2000/svg">
<path d="M12.1869 10.9423C13.2054 9.7487 13.7832 8.23462 13.7832 6.63986C13.7834 2.97141 10.81 -0.00195312 7.14177 -0.00195312C3.47352 -0.00195312 0.5 2.97159 0.5 6.63968C0.5 10.3079 3.47352 13.2817 7.14159 13.2817C7.79886 13.2822 8.45258 13.1852 9.08135 12.9937C9.21377 12.9525 9.32448 12.8605 9.38931 12.7378C9.45414 12.6152 9.46782 12.4719 9.42736 12.3392C9.38691 12.2066 9.2956 12.0953 9.17338 12.0297C9.05116 11.9641 8.90796 11.9496 8.77503 11.9892C8.24555 12.1503 7.69506 12.232 7.14159 12.2314C4.0536 12.2313 1.55022 9.72787 1.55022 6.63968C1.55022 3.55166 4.0536 1.04827 7.14159 1.04827C10.2298 1.04827 12.7333 3.55166 12.7333 6.63968C12.7333 8.10475 12.1527 9.49 11.1393 10.5341C11.0282 10.6485 10.9666 10.802 10.9678 10.9614C10.969 11.1209 11.0328 11.2734 11.1456 11.3862L13.6066 13.8472C13.7053 13.9444 13.8384 13.9986 13.977 13.998C14.1155 13.9975 14.2482 13.9422 14.3462 13.8443C14.4441 13.7463 14.4994 13.6137 14.5 13.4751C14.5006 13.3366 14.4464 13.2035 14.3493 13.1047L12.1869 10.9423Z" fill="white"/>
</svg>
