<svg width="30" height="30" viewBox="0 0 30 30" fill="none" xmlns="http://www.w3.org/2000/svg">
<path d="M30 16.9302C29.9926 16.7898 29.9532 16.653 29.885 16.5301C29.8151 16.4241 29.7244 16.3333 29.6183 16.2635L23.065 12.4631V5.2574C23.1216 5.13544 23.1508 5.00263 23.1508 4.86819C23.1508 4.73376 23.1216 4.60095 23.065 4.47899C22.9434 4.27847 22.7524 4.12959 22.5283 4.06062L15.4783 0.126906C15.3326 0.0437407 15.1678 0 15 0C14.8322 0 14.6674 0.0437407 14.5217 0.126906L7.49 4.13562C7.36553 4.21146 7.26052 4.31534 7.18333 4.43899C7.11511 4.56186 7.07578 4.69867 7.06833 4.83903V12.4414L0.518333 16.2435C0.402535 16.3162 0.304111 16.4135 0.23 16.5285C0.120949 16.6404 0.0418482 16.778 0 16.9285V25.026C0.00139706 25.192 0.0462984 25.3548 0.130227 25.4981C0.214156 25.6415 0.33418 25.7603 0.478333 25.8427L7.51 29.8731C7.6557 29.9563 7.82057 30 7.98833 30C8.1561 30 8.32096 29.9563 8.46667 29.8731L15.0183 26.0711L21.5717 29.8714H22.05C22.2833 29.8714 22.51 29.7831 22.6833 29.6247L29.5017 25.7294C29.6461 25.6471 29.7665 25.5284 29.8507 25.3851C29.9349 25.2418 29.9801 25.0789 29.9817 24.9126V16.9285H30V16.9302ZM22.03 19.9705L16.915 17.0435L22.0317 14.1166L27.145 17.0435L22.03 19.9705ZM7.97 14.1166L10.5367 15.5801L13.085 17.0435L8.00833 19.9521L2.855 17.0435L7.97 14.1166ZM14.0617 9.55448V15.4084L13.2183 14.9333L8.92667 12.4631V6.60753L14.06 9.55448H14.0617ZM21.0533 12.4631L15.9767 15.37V9.55281L21.0533 6.64587V12.4631ZM8.92667 21.624L14.0433 18.697V24.5326L8.92667 27.4595V21.6256V21.624ZM15 2.04542L20.1333 4.99237L15 7.91932L9.885 4.97237L15 2.04542ZM1.91667 18.697L7.03 21.624V27.4795L1.91667 24.5326V18.6987V18.697ZM15.9583 18.697L21.13 21.664V27.5179L15.9583 24.5342V18.697ZM23.0467 27.4412V21.584L28.1033 18.6954V24.5309L23.0467 27.4395V27.4412Z" fill="black"/>
</svg>
